<svg width="33" height="33" viewBox="0 0 33 33" fill="none" xmlns="http://www.w3.org/2000/svg">
<path d="M2.32025 10.6646C2.41677 10.5543 2.53567 10.4659 2.66903 10.4053C2.8024 10.3446 2.94716 10.313 3.09369 10.3127H8.81325L15.7265 2.41457C15.8233 2.30484 15.9423 2.21696 16.0756 2.15676C16.209 2.09656 16.3536 2.06543 16.4999 2.06543C16.6462 2.06543 16.7909 2.09656 16.9242 2.15676C17.0576 2.21696 17.1766 2.30484 17.2734 2.41457L24.1866 10.3127H29.9062C30.0532 10.3126 30.1984 10.3441 30.3323 10.4048C30.4661 10.4655 30.5854 10.5541 30.6822 10.6647C30.779 10.7753 30.8511 10.9053 30.8935 11.046C30.936 11.1867 30.9479 11.3349 30.9284 11.4805L28.9858 26.0547C28.918 26.5493 28.6738 27.0028 28.2981 27.3316C27.9224 27.6604 27.4406 27.8423 26.9413 27.8439H6.05853C5.55929 27.8423 5.07744 27.6604 4.70175 27.3316C4.32606 27.0028 4.08184 26.5493 4.01407 26.0547L2.07146 11.4805C2.05232 11.3347 2.06461 11.1864 2.10752 11.0456C2.15044 10.9049 2.22297 10.775 2.32025 10.6646ZM22.4812 23.7189C22.516 23.7208 22.5508 23.7208 22.5856 23.7189C22.8421 23.7202 23.0899 23.6258 23.2806 23.4542C23.4713 23.2826 23.5912 23.046 23.6168 22.7908L24.3387 15.572C24.3661 15.2999 24.2842 15.028 24.1111 14.8163C23.938 14.6045 23.6879 14.4702 23.4158 14.4428C23.1436 14.4155 22.8718 14.4973 22.66 14.6704C22.4482 14.8435 22.3139 15.0936 22.2865 15.3658L21.5647 22.5845C21.5358 22.8565 21.6161 23.1288 21.788 23.3415C21.9599 23.5543 22.2092 23.69 22.4812 23.7189ZM15.4687 22.6877C15.4687 22.9612 15.5773 23.2235 15.7707 23.4169C15.9641 23.6103 16.2264 23.7189 16.4999 23.7189C16.7734 23.7189 17.0357 23.6103 17.2291 23.4169C17.4225 23.2235 17.5312 22.9612 17.5312 22.6877V15.4689C17.5312 15.1954 17.4225 14.9331 17.2291 14.7397C17.0357 14.5463 16.7734 14.4377 16.4999 14.4377C16.2264 14.4377 15.9641 14.5463 15.7707 14.7397C15.5773 14.9331 15.4687 15.1954 15.4687 15.4689V22.6877ZM21.4461 10.3127L16.4999 4.66012L11.5538 10.3127H21.4461ZM8.66759 15.572L9.38947 22.7908C9.41501 23.0449 9.53396 23.2806 9.72329 23.452C9.91262 23.6235 10.1588 23.7186 10.4143 23.7189C10.449 23.7208 10.4839 23.7208 10.5187 23.7189C10.6534 23.7054 10.7842 23.6654 10.9035 23.6013C11.0228 23.5373 11.1283 23.4503 11.214 23.3455C11.2997 23.2406 11.364 23.1199 11.403 22.9902C11.4421 22.8605 11.4552 22.7244 11.4417 22.5897L10.7198 15.3709C10.6924 15.0988 10.5581 14.8487 10.3463 14.6756C10.1346 14.5025 9.8627 14.4206 9.59056 14.448C9.31842 14.4753 9.06829 14.6097 8.8952 14.8214C8.72211 15.0332 8.64024 15.3051 8.66759 15.5772V15.572Z" fill="white"/>
</svg>
