<svg width="33" height="33" viewBox="0 0 33 33" fill="none" xmlns="http://www.w3.org/2000/svg">
<path d="M29.7682 28.3595C29.6777 28.5163 29.5475 28.6465 29.3907 28.737C29.2339 28.8275 29.056 28.8751 28.8749 28.8751H4.12492C3.94399 28.8749 3.76629 28.8271 3.60966 28.7365C3.45304 28.6459 3.32301 28.5157 3.23262 28.359C3.14224 28.2023 3.09468 28.0245 3.09473 27.8436C3.09477 27.6626 3.14242 27.4849 3.23289 27.3282C5.19613 23.9341 8.22156 21.5004 11.7523 20.3467C10.0058 19.307 8.64894 17.7227 7.89 15.8372C7.13105 13.9518 7.01201 11.8693 7.55117 9.90957C8.09033 7.94988 9.25786 6.22135 10.8745 4.98944C12.4911 3.75752 14.4674 3.09033 16.4999 3.09033C18.5324 3.09033 20.5087 3.75752 22.1254 4.98944C23.742 6.22135 24.9095 7.94988 25.4487 9.90957C25.9878 11.8693 25.8688 13.9518 25.1098 15.8372C24.3509 17.7227 22.994 19.307 21.2475 20.3467C24.7783 21.5004 27.8037 23.9341 29.767 27.3282C29.8577 27.4849 29.9055 27.6626 29.9058 27.8437C29.906 28.0247 29.8586 28.2026 29.7682 28.3595Z" fill="white"/>
</svg>
