<svg width="119" height="30" viewBox="0 0 119 30" fill="none" xmlns="http://www.w3.org/2000/svg">
<path d="M16.0801 1.6801H10.5201C9.45347 1.6801 8.52014 1.82676 7.72014 2.1201C6.92014 2.41343 6.21347 2.82676 5.60014 3.3601C5.01347 3.89343 4.49347 4.53343 4.04014 5.2801C3.5868 6.02676 3.16014 6.86676 2.76014 7.8001H2.24014V1.1201H22.9601L6.80014 29.0401H14.0401C15.1068 29.0401 16.1335 28.8934 17.1201 28.6001C18.1068 28.3068 19.0135 27.8268 19.8401 27.1601C20.6935 26.4668 21.4268 25.5868 22.0401 24.5201C22.6801 23.4268 23.1735 22.1068 23.5201 20.5601H24.0401V29.6001H0.000136793L16.0801 1.6801ZM30.0829 1.1201H43.243V1.6801H39.563V29.0401H43.243V29.6001H30.0829V29.0401H33.7629V1.6801H30.0829V1.1201ZM48.672 1.1201H58.952L65.872 21.0401H65.952L72.992 1.1201H82.992V1.6801H79.312V29.0401H82.992V29.6001H69.872V29.0401H73.512V1.6801H73.432L63.592 29.6001H62.952L53.072 1.6801H52.992V29.0401H56.672V29.6001H48.672V29.0401H52.352V1.6801H48.672V1.1201ZM98.9633 6.8401L94.4833 17.7601H103.683L98.9633 6.8401ZM85.8433 29.0401H89.2033L101.123 9.72748e-05H102.203L114.803 29.0401H118.243V29.6001H104.803V29.0401H108.523L103.883 18.3201H94.2833L89.8433 29.0401H93.4033V29.6001H85.8433V29.0401Z" fill="#FCE25E"/>
</svg>
